<?xml version="1.0" encoding="UTF-8" standalone="no"?>
<!-- Created with Inkscape (http://www.inkscape.org/) -->

<svg
   xmlns:dc="http://purl.org/dc/elements/1.1/"
   xmlns:cc="http://creativecommons.org/ns#"
   xmlns:rdf="http://www.w3.org/1999/02/22-rdf-syntax-ns#"
   xmlns:svg="http://www.w3.org/2000/svg"
   xmlns="http://www.w3.org/2000/svg"
   xmlns:sodipodi="http://sodipodi.sourceforge.net/DTD/sodipodi-0.dtd"
   xmlns:inkscape="http://www.inkscape.org/namespaces/inkscape"
   width="5.7460446mm"
   height="8.4892445mm"
   viewBox="0 0 20.360001 30.08"
   id="svg2"
   version="1.1"
   inkscape:version="0.91 r13725"
   sodipodi:docname="money.svg">
  <defs
     id="defs4" />
  <sodipodi:namedview
     id="base"
     pagecolor="#ffffff"
     bordercolor="#666666"
     borderopacity="1.0"
     inkscape:pageopacity="0.0"
     inkscape:pageshadow="2"
     inkscape:zoom="0.7"
     inkscape:cx="235.55082"
     inkscape:cy="14.860776"
     inkscape:document-units="px"
     inkscape:current-layer="layer1"
     showgrid="false"
     fit-margin-top="0"
     fit-margin-left="0"
     fit-margin-right="0"
     fit-margin-bottom="0"
     inkscape:window-width="1280"
     inkscape:window-height="751"
     inkscape:window-x="0"
     inkscape:window-y="25"
     inkscape:window-maximized="1" />
  <metadata
     id="metadata7">
    <rdf:RDF>
      <cc:Work
         rdf:about="">
        <dc:format>image/svg+xml</dc:format>
        <dc:type
           rdf:resource="http://purl.org/dc/dcmitype/StillImage" />
        <dc:title></dc:title>
      </cc:Work>
    </rdf:RDF>
  </metadata>
  <g
     inkscape:label="Layer 1"
     inkscape:groupmode="layer"
     id="layer1"
     transform="translate(-243.89742,-232.13102)">
    <g
       style="font-style:normal;font-weight:normal;font-size:40px;line-height:125%;font-family:sans-serif;letter-spacing:0px;word-spacing:0px;fill:#000000;fill-opacity:1;stroke:none;stroke-width:1px;stroke-linecap:butt;stroke-linejoin:miter;stroke-opacity:1"
       id="flowRoot3336">
      <path
         d="m 248.73742,240.37102 q 0,1.12 0.28,2 0.32,0.88 1.08,2.12 0.76,1.24 1,1.76 l 6.4,0 0,2.2 -5.44,0 q 0.6,1.72 0.6,2.84 0,1.56 -1.04,3.2 -1,1.64 -3.68,4.36 2.36,-1.56 4.88,-1.56 1.32,0 3.4,0.64 2.08,0.6 3.04,0.6 1.6,0 3.32,-1.2 l 1.68,2.64 q -2.28,2.24 -5.24,2.24 -1.72,0 -4.4,-0.92 -2.68,-0.92 -4.08,-0.92 -2.12,0 -4.36,1.48 l -1.92,-2.64 q 2.76,-2.36 3.88,-4.08 1.12,-1.72 1.12,-3.56 0,-1.52 -0.96,-3.12 l -4.4,0 0,-2.2 3.24,0 q -1.36,-2.28 -1.76,-3.24 -0.36,-1 -0.36,-2.32 0,-3.64 2.72,-6.08 2.76,-2.48 6.8,-2.48 1.16,0 2.2,0.2 1.08,0.16 2.32,0.76 1.24,0.6 2.12,1.6 0.88,0.96 1.48,2.72 0.64,1.72 0.68,4 l -3.52,0 q -0.16,-6.16 -5.44,-6.16 -2.56,0 -4.12,1.4 -1.52,1.4 -1.52,3.72 z"
         style="font-style:normal;font-variant:normal;font-weight:normal;font-stretch:normal;font-size:40px;line-height:125%;font-family:FreeSans;-inkscape-font-specification:'FreeSans, Normal';text-align:start;writing-mode:lr-tb;text-anchor:start"
         id="path3345"
         inkscape:connector-curvature="0" />
    </g>
  </g>
</svg>
